<svg width="307" height="29" viewBox="0 0 307 29" fill="none" xmlns="http://www.w3.org/2000/svg">
<g clip-path="url(#clip0_283_2)">
<path d="M228.205 28.549C227.914 28.283 227.758 27.9393 227.637 27.5684C227.429 26.9373 227.213 26.312 226.981 25.6906C226.229 23.675 225.564 21.6283 224.898 19.5835C224.683 18.9252 224.497 18.2592 224.255 17.6106C223.816 16.4241 223.447 15.2144 223.054 14.0124C222.903 13.556 222.77 13.0958 222.609 12.6453C222.264 11.6821 221.956 10.7035 221.622 9.73835C221.433 9.19464 221.272 8.64121 221.07 8.10332C220.676 7.05666 220.334 5.99253 219.977 4.93228C219.726 4.1905 219.448 3.45648 219.225 2.70499C219.119 2.34963 218.969 2.00786 218.856 1.65251C218.817 1.52434 218.796 1.39812 218.79 1.2719C218.777 0.935965 218.946 0.726246 219.275 0.664107C219.379 0.644688 219.488 0.64663 219.594 0.64663C221.127 0.64663 222.66 0.64663 224.193 0.64663C224.24 0.64663 224.288 0.64663 224.335 0.64663C224.803 0.666048 224.948 0.726246 225.085 1.2253C225.229 1.74766 225.474 2.24089 225.663 2.75159C225.832 3.20987 225.975 3.67979 226.144 4.13807C226.328 4.63907 226.532 5.13229 226.722 5.63329C226.887 6.07021 227.049 6.50906 227.203 6.94986C227.393 7.48775 227.604 8.01788 227.789 8.55771C227.903 8.89171 228.032 9.22182 228.15 9.55388C228.331 10.0568 228.513 10.5636 228.711 11.0608C228.888 11.5054 229.036 11.9598 229.202 12.4084C229.4 12.9424 229.605 13.4725 229.799 14.0065C230.008 14.5813 230.208 15.158 230.417 15.7328C230.586 16.193 230.771 16.6455 230.938 17.1057C231.104 17.5659 231.246 18.0339 231.415 18.4922C231.6 18.9932 231.805 19.4845 231.994 19.9835C232.163 20.4321 232.315 20.8846 232.48 21.3331C232.669 21.8458 232.863 22.3545 233.055 22.8652C233.142 23.0963 233.22 23.3293 233.308 23.5585C233.667 24.508 233.99 25.4712 234.34 26.4227C234.489 26.8285 234.667 27.2227 234.78 27.6441C234.879 28.0189 234.839 28.248 234.536 28.4675C234.508 28.4888 234.479 28.5044 234.473 28.5451H228.2L228.205 28.549Z" fill="black"/>
<path d="M299.706 28.549C299.44 28.3238 299.292 28.0267 299.182 27.6985C298.976 27.0926 298.758 26.4907 298.541 25.8887C298.023 24.4459 297.499 23.005 297.042 21.5389C296.871 20.9894 296.702 20.4379 296.508 19.8961C295.939 18.3116 295.433 16.7057 294.914 15.1037C294.697 14.4337 294.5 13.758 294.254 13.0997C293.899 12.1424 293.606 11.1656 293.284 10.1986C292.957 9.21405 292.598 8.23925 292.267 7.25667C292.016 6.51489 291.761 5.7731 291.51 5.03132C291.274 4.33419 291.048 3.63125 290.805 2.93606C290.65 2.49332 290.477 2.05835 290.356 1.60396C290.331 1.51075 290.301 1.41754 290.291 1.32239C290.255 0.967033 290.384 0.786441 290.721 0.67964C290.862 0.634977 291.002 0.642744 291.143 0.642744C292.664 0.642744 294.184 0.642744 295.705 0.642744C295.764 0.642744 295.825 0.642744 295.884 0.644686C296.339 0.666047 296.424 0.747604 296.572 1.17675C296.755 1.70493 296.966 2.22147 297.158 2.74576C297.358 3.29531 297.519 3.86232 297.748 4.39827C298.039 5.08569 298.267 5.79835 298.531 6.49547C298.778 7.14793 299.018 7.80621 299.246 8.46838C299.425 8.98686 299.655 9.48979 299.83 10.0102C300.015 10.5636 300.222 11.1074 300.423 11.653C300.669 12.3171 300.924 12.9773 301.165 13.6415C301.332 14.1017 301.477 14.5697 301.646 15.0279C301.831 15.5289 302.038 16.0222 302.222 16.5232C302.392 16.9834 302.536 17.4533 302.705 17.9135C302.89 18.4165 303.114 18.9058 303.28 19.4146C303.455 19.9544 303.677 20.4748 303.856 21.0108C304.025 21.5176 304.231 22.0147 304.423 22.5176C304.594 22.9643 304.746 23.4187 304.911 23.8672C305.104 24.3915 305.296 24.9158 305.503 25.4343C305.587 25.644 305.644 25.8596 305.729 26.0693C305.921 26.5353 306.079 27.015 306.248 27.4907C306.44 28.0325 306.382 28.1917 305.98 28.5451H299.706V28.549Z" fill="black"/>
<path d="M269.052 28.549C268.752 28.3878 268.68 28.1276 268.68 27.7956C268.685 19.0029 268.683 10.2102 268.683 1.41561C268.683 1.34376 268.68 1.26997 268.687 1.19812C268.712 0.92432 268.855 0.751496 269.119 0.701008C269.258 0.673822 269.402 0.666055 269.543 0.666055C270.766 0.664113 271.991 0.666055 273.213 0.666055C273.381 0.666055 273.546 0.667997 273.71 0.706833C273.963 0.765089 274.075 0.893251 274.1 1.15346C274.107 1.23696 274.102 1.3224 274.102 1.40784C274.102 10.2122 274.102 19.0184 274.109 27.8228C274.109 28.1471 274.029 28.384 273.757 28.551H269.052V28.549Z" fill="black"/>
<path d="M280.316 28.549C280.14 28.3451 279.938 28.1471 279.98 27.8441C280.008 27.6461 280.054 27.4461 280.13 27.2635C280.334 26.78 280.499 26.2829 280.678 25.7916C280.86 25.2887 281.062 24.7954 281.25 24.2944C281.418 23.8459 281.575 23.3915 281.741 22.941C281.939 22.405 282.136 21.8691 282.342 21.337C282.452 21.0516 282.543 20.7603 282.648 20.4748C282.924 19.7214 283.205 18.9699 283.479 18.2165C283.682 17.6592 283.88 17.098 284.093 16.5426C284.352 15.8688 284.582 15.1852 284.839 14.5095C285.023 14.0221 285.196 13.5269 285.377 13.0356C285.62 12.3696 285.881 11.7113 286.117 11.0413C286.265 10.6219 286.402 10.2005 286.581 9.79468C286.615 9.71701 286.645 9.63739 286.691 9.56748C286.976 9.13445 287.579 9.16746 287.788 9.64322C287.937 9.98304 288.039 10.3442 288.15 10.7015C288.501 11.8317 288.829 12.9677 289.228 14.0803C289.622 15.1755 289.89 16.3135 290.304 17.4009C290.388 17.6223 290.314 17.8281 290.247 18.0339C290.042 18.6631 289.836 19.2922 289.631 19.9214C289.26 21.0535 288.893 22.1856 288.513 23.3138C288.25 24.0886 287.963 24.8556 287.697 25.6304C287.417 26.4441 287.104 27.2441 286.858 28.0694C286.792 28.2927 286.615 28.417 286.446 28.5451H280.315L280.316 28.549Z" fill="black"/>
<path d="M208.886 28.549C208.462 28.2364 208.401 27.9179 208.606 27.3994C208.825 26.846 208.992 26.2712 209.211 25.7178C209.485 25.0285 209.73 24.3274 209.991 23.6342C210.24 22.9701 210.475 22.3002 210.723 21.636C210.978 20.9486 211.232 20.2612 211.485 19.5738C211.727 18.9175 211.963 18.2553 212.204 17.5989C212.392 17.0863 212.573 16.5678 212.777 16.0591C212.988 15.5289 213.168 14.9852 213.366 14.4473C213.687 13.5735 214.02 12.7036 214.328 11.8239C214.519 11.2841 214.771 10.7656 214.912 10.2063C214.96 10.016 215.062 9.83739 215.152 9.66068C215.272 9.42184 215.454 9.25678 215.734 9.27037C216.049 9.28591 216.257 9.46067 216.354 9.76943C216.692 10.8316 217.027 11.8957 217.369 12.9579C217.797 14.2842 218.221 15.6105 218.67 16.929C218.828 17.3912 218.839 17.8009 218.668 18.2805C218.176 19.6495 217.753 21.0418 217.299 22.4244C217.059 23.1546 216.812 23.8808 216.563 24.6071C216.306 25.3566 216.029 26.0984 215.785 26.8538C215.652 27.2674 215.454 27.6538 215.359 28.081C215.308 28.3121 215.118 28.4247 214.945 28.551H208.886V28.549Z" fill="black"/>
<path d="M257.269 18.0922C257.326 17.9563 257.319 17.8572 257.319 17.7621C257.319 12.3132 257.315 6.86637 257.315 1.41755C257.315 1.26026 257.315 1.10297 257.34 0.947625C257.389 0.621395 257.566 0.464105 257.887 0.436919C257.969 0.429152 258.053 0.434977 258.137 0.434977C259.443 0.434977 260.75 0.434977 262.058 0.434977C262.68 0.434977 262.84 0.596151 262.84 1.22337C262.84 9.0393 262.84 16.8552 262.84 24.6712C262.84 25.5644 262.817 26.4596 262.849 27.3528C262.864 27.8072 262.56 28.1451 262.09 28.1354C260.926 28.1082 259.761 28.1063 258.599 28.1354C258.133 28.1471 257.847 27.9665 257.606 27.5878C257.024 26.6771 256.421 25.78 255.826 24.877C252.793 20.2748 249.758 15.6726 246.722 11.0705C246.585 10.8627 246.443 10.6569 246.287 10.4297C246.169 10.585 246.201 10.7306 246.201 10.8666C246.201 16.3018 246.201 21.739 246.201 27.1742C246.201 27.3762 246.182 27.5703 246.108 27.7684C246.024 27.9917 245.878 28.0907 245.665 28.1218C245.606 28.1315 245.547 28.1257 245.486 28.1257C244.121 28.1257 242.753 28.1257 241.388 28.1257C241.304 28.1257 241.221 28.1276 241.139 28.114C240.901 28.0713 240.77 27.9315 240.736 27.6771C240.721 27.5587 240.719 27.4363 240.719 27.316C240.719 18.6786 240.719 10.0413 240.719 1.40396C240.719 1.24667 240.715 1.08938 240.726 0.93209C240.749 0.621395 240.886 0.47964 241.192 0.440803C241.263 0.431094 241.335 0.436919 241.405 0.436919C242.641 0.436919 243.877 0.444687 245.112 0.431094C245.435 0.42721 245.638 0.543721 245.815 0.813637C248.116 4.31673 250.427 7.81399 252.736 11.3132C254.145 13.4492 255.554 15.5833 256.963 17.7174C257.047 17.8436 257.113 17.9854 257.267 18.0922H257.269Z" fill="black"/>
<path d="M109.69 13.9056C109.69 9.58106 109.69 5.25657 109.69 0.932081C109.69 0.774791 109.69 0.617502 109.705 0.462154C109.732 0.178645 109.849 0.0524246 110.125 0.0116458C110.23 -0.00388895 110.338 0.00193659 110.445 0.00193659C111.704 0.00193659 112.963 0.00193659 114.223 0.00193659C114.959 0.00193659 115.129 0.178645 115.129 0.947616C115.129 2.75936 115.129 4.5711 115.129 6.38284C115.129 7.9402 115.129 9.4995 115.129 11.0569C115.129 11.4219 115.075 11.4064 115.469 11.4045C119.295 11.4045 123.12 11.4045 126.946 11.4045C127.246 11.4045 127.248 11.4064 127.248 11.0841C127.248 7.70136 127.248 4.31866 127.248 0.935964C127.248 0.81557 127.246 0.695176 127.248 0.572839C127.26 0.262144 127.429 0.060192 127.726 0.00970398C127.807 -0.00388894 127.891 -5.25283e-06 127.975 -5.25283e-06C129.317 -5.25283e-06 130.66 -5.25283e-06 132.003 -5.25283e-06C132.503 -5.25283e-06 132.663 0.161168 132.664 0.669932C132.666 2.95354 132.664 5.23521 132.664 7.51882C132.664 14.0667 132.664 20.6127 132.664 27.1606C132.664 27.7451 132.535 27.8907 131.967 27.8946C130.635 27.9024 129.306 27.8985 127.975 27.8985C127.857 27.8985 127.739 27.8868 127.625 27.848C127.395 27.7723 127.269 27.6169 127.252 27.3742C127.245 27.2655 127.248 27.1567 127.248 27.048C127.248 23.8595 127.248 20.669 127.248 17.4805C127.248 17.3951 127.248 17.3116 127.248 17.2261C127.248 16.8319 127.283 16.8766 126.908 16.8766C123.095 16.8766 119.28 16.8766 115.467 16.8746C115.444 16.8746 115.42 16.8746 115.397 16.8746C115.134 16.8766 115.131 16.8766 115.131 17.1523C115.131 18.7466 115.131 20.3408 115.131 21.9351C115.131 23.6148 115.131 25.2925 115.131 26.9722C115.131 27.1043 115.14 27.2363 115.108 27.3684C115.03 27.6752 114.845 27.8461 114.539 27.883C114.446 27.8946 114.349 27.8946 114.254 27.8946C112.995 27.8946 111.736 27.8946 110.475 27.8946C110.38 27.8946 110.285 27.8907 110.19 27.8849C109.908 27.8655 109.733 27.7063 109.709 27.4169C109.688 27.1897 109.694 26.9586 109.694 26.7295C109.694 22.4536 109.694 18.1776 109.694 13.8997L109.69 13.9056Z" fill="black"/>
<path d="M41.8 0.231076C44.4605 0.231076 47.121 0.231076 49.7834 0.231076C50.6887 0.231076 51.5882 0.285447 52.4592 0.563131C55.0874 1.40007 57.0138 3.07005 58.1777 5.61193C58.6474 6.63528 58.8965 7.7266 58.9726 8.86064C59.0258 9.64903 58.9345 10.4102 58.7729 11.1792C58.1986 13.8939 56.6791 15.8901 54.3381 17.2688C53.8893 17.5329 53.4062 17.7193 52.9175 17.8922C51.8639 18.265 50.7837 18.4184 49.6693 18.4165C45.8925 18.4048 42.1138 18.4126 38.3369 18.4126C38.2419 18.4126 38.1468 18.4068 38.0517 18.4145C37.8406 18.4339 37.755 18.5155 37.7284 18.7272C37.717 18.8223 37.7208 18.9194 37.7208 19.0165C37.7208 21.8788 37.7227 24.7411 37.7246 27.6053C37.7246 27.6907 37.7246 27.7742 37.7208 27.8597C37.7094 28.0325 37.62 28.1238 37.4469 28.1257C37.3518 28.1257 37.2568 28.1257 37.1617 28.1257C35.6764 28.1257 34.1912 28.1257 32.7078 28.1257C32.3376 28.1257 32.1519 27.9399 32.1506 27.5684C32.1506 23.5099 32.1506 19.4515 32.1506 15.393C32.1506 14.657 32.1487 13.9191 32.1506 13.1832C32.1506 12.8026 32.2153 12.7366 32.5861 12.7346C33.227 12.7327 33.8698 12.7404 34.5107 12.7404C39.6548 12.7424 44.799 12.7366 49.9413 12.7502C51.2421 12.754 52.2329 12.2064 52.9175 11.1074C53.3587 10.4005 53.4937 9.62767 53.3492 8.77326C53.1742 7.73631 52.6626 6.96151 51.8164 6.40615C51.2402 6.02749 50.5955 5.86049 49.9013 5.86049C44.6982 5.86631 39.4951 5.86631 34.292 5.86825C33.7215 5.86825 33.1509 5.87408 32.5823 5.86825C32.2058 5.86631 32.1506 5.80612 32.1506 5.42163C32.1506 3.82737 32.1506 2.23312 32.1506 0.638863C32.1506 0.289331 32.1963 0.238843 32.5348 0.227192C32.7725 0.219424 33.0102 0.227192 33.2479 0.227192C36.0986 0.227192 38.9493 0.227192 41.8019 0.227192L41.8 0.231076Z" fill="black"/>
<path d="M22.8265 28.1257C21.9365 28.1257 21.0446 28.1257 20.1545 28.1257C19.6582 28.1257 19.4243 27.9645 19.2664 27.4829C19.0953 26.9645 18.9127 26.4499 18.7282 25.9353C18.4468 25.1508 18.1691 24.3624 17.882 23.5779C17.5226 22.5934 17.1993 21.5991 16.8836 20.601C16.3853 19.0281 15.8091 17.4844 15.3223 15.9076C14.8107 14.2512 14.1793 12.6336 13.683 10.9695C13.3901 9.98302 13.0155 9.02763 12.6922 8.05089C12.3403 6.9887 11.96 5.93233 11.612 4.8682C11.361 4.09729 11.0472 3.34968 10.8323 2.56711C10.7144 2.13991 10.5356 1.73212 10.3911 1.31268C10.121 0.534 10.4253 0.223304 11.1385 0.22913C12.6712 0.238839 14.2021 0.22913 15.7349 0.22913C15.8053 0.22913 15.8776 0.236897 15.9479 0.236897C16.2978 0.234956 16.4842 0.438849 16.5945 0.753428C16.8646 1.53599 17.1517 2.31079 17.4408 3.08753C17.688 3.75164 17.9257 4.42158 18.1729 5.08763C18.4278 5.77504 18.6883 6.46246 18.9336 7.15181C19.1923 7.88195 19.4813 8.60043 19.7248 9.33639C19.9606 10.0549 20.2801 10.7442 20.5178 11.4608C20.687 11.9754 20.9057 12.4705 21.0598 12.9909C21.21 13.4997 21.4496 13.9813 21.6284 14.4842C21.7824 14.9134 21.946 15.3367 22.1 15.7639C22.3016 16.3212 22.5032 16.8805 22.7162 17.4339C22.9216 17.9679 23.0699 18.5252 23.2924 19.0514C23.5815 19.7408 23.8097 20.4515 24.074 21.1486C24.3345 21.8361 24.5761 22.5332 24.8328 23.2225C25.1047 23.9527 25.3577 24.6906 25.6429 25.4168C25.8768 26.011 26.0803 26.6188 26.3104 27.2169C26.4949 27.6946 26.1944 28.1199 25.6791 28.1237C24.7282 28.1315 23.7792 28.1257 22.8284 28.1257H22.8265Z" fill="black"/>
<path d="M191.624 0.502926C191.751 0.485449 191.793 0.543705 191.814 0.617495C191.976 1.18646 192.24 1.71658 192.443 2.27001C192.614 2.73993 192.801 3.20986 192.999 3.67396C193.223 4.2002 193.417 4.74003 193.626 5.27404C193.826 5.78669 194.029 6.29739 194.225 6.81004C194.434 7.3557 194.636 7.9033 194.845 8.44896C195.001 8.85286 195.182 9.24706 195.321 9.65485C195.458 10.0568 195.64 10.4394 195.787 10.8374C195.931 11.2336 196.083 11.6297 196.237 12.0239C196.403 12.4492 196.585 12.8647 196.756 13.288C196.895 13.6298 197.04 13.9716 197.156 14.3211C197.405 15.0648 197.713 15.7872 197.996 16.5173C198.194 17.0261 198.377 17.5446 198.605 18.0456C198.833 18.5466 198.997 19.0786 199.196 19.5952C199.356 20.0068 199.541 20.4088 199.685 20.8243C199.908 21.4613 200.197 22.071 200.413 22.7099C200.55 23.1177 200.729 23.5099 200.879 23.9138C201.087 24.4731 201.311 25.0265 201.543 25.576C201.661 25.8537 201.741 26.1469 201.872 26.4227C202.053 26.8033 202.178 27.213 202.33 27.6072C202.393 27.7723 202.471 27.9315 202.524 28.1004C202.572 28.2519 202.517 28.3102 202.361 28.2577C202.127 28.1781 201.899 28.0849 201.672 27.9859C201.205 27.78 200.75 27.5412 200.261 27.382C200.153 27.347 200.056 27.2713 199.951 27.2208C199.295 26.9081 198.622 26.6343 197.955 26.3489C197.375 26.1003 196.804 25.8227 196.23 25.5605C195.575 25.2615 194.933 24.9372 194.258 24.6847C194.058 24.609 193.805 24.5333 193.685 24.2886C193.619 24.1527 193.562 24.0051 193.518 23.8711C193.233 23.0012 192.86 22.1662 192.535 21.3137C192.278 20.6379 191.989 19.9719 191.736 19.2961C191.415 18.4378 191.065 17.5892 190.755 16.727C190.494 16.0047 190.197 15.2959 189.908 14.5852C189.604 13.8376 189.334 13.0783 189.016 12.3346C188.689 11.5676 188.425 10.7733 188.132 9.99273C188.09 9.8801 188.045 9.76747 187.991 9.66067C187.889 9.45484 187.917 9.26842 188.01 9.05676C188.26 8.49362 188.482 7.91689 188.718 7.34793C188.87 6.97898 189.013 6.60226 189.178 6.24302C189.345 5.8799 189.471 5.4993 189.646 5.14005C189.844 4.73809 189.996 4.31283 190.169 3.89921C190.5 3.10306 190.842 2.31078 191.158 1.5088C191.27 1.22335 191.439 0.95926 191.494 0.650506C191.511 0.551472 191.576 0.512635 191.626 0.502926H191.624Z" fill="black"/>
<path d="M164.857 28.2519C164.891 27.9373 165.001 27.6694 165.123 27.4169C165.308 27.0344 165.405 26.6188 165.591 26.2343C165.772 25.8654 165.893 25.4692 166.04 25.0828C166.196 24.6673 166.344 24.2478 166.504 23.8361C166.709 23.308 166.928 22.7837 167.128 22.2516C167.327 21.7195 167.554 21.1933 167.755 20.6612C167.972 20.0923 168.193 19.5233 168.411 18.9563C168.596 18.4805 168.776 17.999 168.98 17.529C169.214 16.9834 169.379 16.4047 169.613 15.859C169.843 15.325 170.051 14.7833 170.264 14.2434C170.602 13.3832 170.897 12.5055 171.256 11.655C171.473 11.1384 171.659 10.6083 171.882 10.0918C172.15 9.46843 172.359 8.81986 172.605 8.18681C172.818 7.63921 173.061 7.10326 173.261 6.54984C173.531 5.80223 173.827 5.06432 174.113 4.32254C174.326 3.76717 174.544 3.20986 174.78 2.66226C175.029 2.07777 175.231 1.47191 175.457 0.875764C175.499 0.76702 175.543 0.652451 175.611 0.559243C175.668 0.479627 175.737 0.444674 175.817 0.580603C176.05 0.97674 176.184 1.41365 176.366 1.83115C176.539 2.22923 176.684 2.63896 176.853 3.04092C177.036 3.47395 177.212 3.90893 177.391 4.34196C177.562 4.75751 177.764 5.16336 177.929 5.5828C178.199 6.26244 178.479 6.93821 178.751 7.61591C178.96 8.13827 179.209 8.64509 179.401 9.17715C179.453 9.32085 179.443 9.43348 179.401 9.58106C179.283 10.0102 179.084 10.4044 178.932 10.82C178.652 11.5792 178.323 12.321 178.042 13.0803C177.676 14.0609 177.304 15.0357 176.918 16.0066C176.608 16.7853 176.317 17.5737 175.982 18.3446C175.723 18.9427 175.545 19.5757 175.292 20.1777C175.062 20.7253 174.843 21.2807 174.63 21.8341C174.398 22.4341 174.156 23.0322 173.945 23.642C173.862 23.8847 173.757 24.1216 173.66 24.3585C173.631 24.4284 173.574 24.4595 173.504 24.4906C172.838 24.7838 172.177 25.0886 171.513 25.3857C170.159 25.9916 168.801 26.5936 167.447 27.1975C166.726 27.5198 166.007 27.8441 165.289 28.1645C165.192 28.2072 165.089 28.2403 164.986 28.2694C164.956 28.2772 164.92 28.2597 164.857 28.25V28.2519Z" fill="black"/>
<path d="M70.788 14.1658C70.788 18.4786 70.788 22.7895 70.788 27.1023C70.788 27.2713 70.7956 27.4383 70.7519 27.6053C70.6568 27.9665 70.4894 28.116 70.1262 28.1238C69.8771 28.1296 69.628 28.1238 69.3769 28.1238C68.3082 28.1238 67.2394 28.1238 66.1687 28.1238C66.085 28.1238 66.0033 28.1257 65.9196 28.1238C65.5392 28.1102 65.3738 27.9606 65.3567 27.5781C65.3415 27.2519 65.3491 26.9256 65.3491 26.5994C65.3491 18.0844 65.3491 9.56942 65.351 1.05248C65.351 0.906846 65.3586 0.763149 65.3681 0.61751C65.3814 0.421384 65.4936 0.312641 65.6762 0.271862C65.8397 0.234967 66.0052 0.229141 66.1725 0.229141C67.4315 0.229141 68.6904 0.229141 69.9493 0.229141C70.6302 0.229141 70.7861 0.384489 70.7861 1.08355C70.7861 5.443 70.7861 9.80438 70.7861 14.1638L70.788 14.1658Z" fill="black"/>
<path d="M90.1209 5.72067C85.88 5.72067 81.6373 5.72067 77.3964 5.72067C77.2424 5.72067 77.0883 5.72067 76.9343 5.71096C76.6852 5.69737 76.5235 5.54397 76.495 5.29541C76.4874 5.22356 76.4912 5.14977 76.4912 5.07792C76.4912 3.67591 76.4912 2.27584 76.4912 0.873826C76.4912 0.413609 76.5939 0.295156 77.0389 0.248552C77.1796 0.233017 77.3241 0.233017 77.4668 0.233017C85.9618 0.233017 94.4568 0.233017 102.952 0.233017C103.129 0.233017 103.309 0.238842 103.484 0.26797C103.724 0.306807 103.836 0.433027 103.865 0.675758C103.876 0.770908 103.872 0.868001 103.872 0.965093C103.872 2.33021 103.872 3.69533 103.87 5.06045C103.87 5.56533 103.733 5.71096 103.239 5.71485C102.408 5.72262 101.575 5.71873 100.744 5.71873C97.2029 5.71873 93.6619 5.71873 90.1228 5.71873L90.1209 5.72067Z" fill="black"/>
<path d="M3.41358 28.1257C2.54639 28.1257 1.6773 28.0888 0.813919 28.1373C0.176841 28.1723 -0.15406 27.6616 0.0703438 27.1023C0.315667 26.4887 0.530562 25.8596 0.758769 25.2382C0.939433 24.7469 1.11629 24.2556 1.29696 23.7643C1.54228 23.0983 1.81042 22.4419 2.03673 21.77C2.20028 21.2826 2.38855 20.8049 2.56541 20.3234C2.82214 19.6223 3.06746 18.9175 3.34512 18.2223C3.5448 17.7232 3.67412 17.195 3.8795 16.6999C4.08489 16.2066 4.24273 15.694 4.44812 15.2008C4.63639 14.7503 4.75239 14.2667 4.94067 13.8162C5.07188 13.5055 5.15366 13.1754 5.3077 12.8725C5.44462 12.6006 5.50738 12.2977 5.61958 12.0123C5.94097 11.1909 6.21482 10.352 6.51339 9.52087C6.55333 9.41018 6.62179 9.3092 6.68075 9.20629C6.82147 8.9655 7.03256 8.85093 7.30641 8.88006C7.58216 8.90918 7.76283 9.07036 7.84841 9.33639C8.13937 10.2471 8.42273 11.1578 8.71559 12.0686C8.89816 12.6317 9.11495 13.1851 9.2728 13.756C9.53333 14.6939 9.88515 15.6027 10.1419 16.5406C10.1533 16.5853 10.1932 16.6222 10.2084 16.6649C10.3264 16.9853 10.3473 17.2766 10.2351 17.6339C9.67216 19.4243 9.07122 21.1991 8.48739 22.9817C8.24016 23.7352 7.9568 24.4789 7.70387 25.2323C7.43003 26.0499 7.13716 26.8596 6.85 27.6732C6.74731 27.9645 6.521 28.1238 6.1939 28.1238C5.26776 28.1276 4.34162 28.1238 3.41548 28.1238L3.41358 28.1257Z" fill="black"/>
<path d="M86.6141 17.9718C86.6141 14.9775 86.6141 11.9831 86.6141 8.98881C86.6141 8.91696 86.6198 8.84317 86.6141 8.77132C86.5989 8.61015 86.6426 8.53636 86.8271 8.53636C88.4778 8.54413 90.1285 8.5383 91.7773 8.54025C92.0264 8.54025 92.0264 8.54801 92.034 8.80434C92.034 8.85288 92.034 8.90143 92.034 8.94998C92.034 14.8901 92.034 20.8302 92.034 26.7684C92.034 26.8286 92.034 26.8887 92.034 26.9489C92.0226 27.3936 91.8058 27.6344 91.3722 27.681C91.2905 27.6888 91.2068 27.6888 91.1231 27.6888C89.9117 27.6888 88.7003 27.6888 87.4908 27.6888C87.312 27.6888 87.139 27.6752 86.9659 27.6131C86.7358 27.5296 86.6103 27.3859 86.6179 27.1315C86.6198 27.0344 86.6179 26.9392 86.6179 26.8421C86.6179 23.8847 86.6179 20.9273 86.6179 17.9679L86.6141 17.9718Z" fill="black"/>
<path d="M55.9716 28.1257C54.9371 28.1257 53.9045 28.1179 52.8718 28.1315C52.6227 28.1354 52.4553 28.0597 52.2937 27.8674C50.9587 26.279 49.6161 24.6964 48.2753 23.1138C47.9654 22.7468 47.6535 22.3837 47.3435 22.0186C47.2979 21.9642 47.2484 21.9098 47.2066 21.8516C47.1229 21.7351 47.0069 21.6186 47.0773 21.4632C47.1533 21.2923 47.3245 21.2982 47.4804 21.2982C48.2411 21.2962 49.0018 21.304 49.7606 21.2923C50.5061 21.2807 51.2477 21.2302 51.9894 21.104C52.4059 21.0321 52.8205 20.9545 53.2236 20.8399C53.5013 20.7603 53.6858 20.8127 53.8759 21.038C55.5228 22.9895 57.2001 24.9158 58.828 26.8868C59.0258 27.1276 59.2312 27.3626 59.4347 27.5995C59.5355 27.716 59.5944 27.848 59.526 27.9956C59.4575 28.1432 59.313 28.1276 59.1836 28.1276C58.1149 28.1276 57.0442 28.1276 55.9754 28.1276L55.9716 28.1257Z" fill="black"/>
<path d="M187.499 21.4768C187.501 21.5856 187.446 21.5894 187.381 21.5914C187.255 21.5953 187.156 21.5215 187.048 21.4768C186.027 21.0457 185.017 20.5913 184.021 20.1039C183.762 19.9777 183.534 19.9835 183.275 20.1039C182.261 20.5739 181.242 21.0302 180.227 21.4924C180.152 21.5254 180.08 21.5797 180.004 21.5894C179.917 21.6011 179.797 21.6458 179.74 21.5545C179.698 21.4885 179.764 21.4069 179.797 21.3292C180.012 20.8244 180.209 20.3117 180.409 19.801C180.641 19.2068 180.875 18.6107 181.101 18.0145C181.43 17.1523 181.75 16.2863 182.085 15.426C182.254 14.9891 182.465 14.5697 182.617 14.1289C182.784 13.6473 183.011 13.191 183.155 12.6997C183.233 12.4317 183.402 12.1987 183.452 11.9152C183.461 11.8647 183.524 11.8239 183.562 11.7792C183.64 11.6919 183.716 11.7093 183.756 11.8084C183.981 12.3657 184.203 12.9269 184.42 13.4881C184.587 13.9211 184.741 14.36 184.911 14.7949C185.125 15.3503 185.34 15.9076 185.572 16.4571C185.69 16.7348 185.782 17.0222 185.899 17.3018C186.069 17.7038 186.234 18.1135 186.367 18.533C186.497 18.9408 186.685 19.3311 186.841 19.7311C187.056 20.2865 187.265 20.8438 187.476 21.4011C187.489 21.4341 187.495 21.469 187.497 21.4807L187.499 21.4768Z" fill="black"/>
<path d="M144.451 12.2474C144.481 12.1694 144.555 12.1176 144.639 12.1176H158.8C158.91 12.1176 159 12.2072 159 12.3176V15.9176C159 16.0281 158.91 16.1176 158.8 16.1176H143.289C143.149 16.1176 143.052 15.9782 143.101 15.8474L144.451 12.2474Z" fill="#7000FF"/>
<path d="M159.085 1.52552C159.085 2.01098 159.085 2.41877 159.085 2.8285C159.085 4.91793 159.085 7.00735 159.085 9.09678C159.085 9.15697 159.079 9.21911 159.085 9.27737C159.108 9.46573 159.034 9.51816 158.847 9.51816C156.875 9.51039 154.903 9.51039 152.931 9.51039C152.897 9.51039 152.862 9.50457 152.828 9.50068C152.948 9.1997 158.085 2.64791 159.085 1.52552Z" fill="#7000FF"/>
<path fill-rule="evenodd" clip-rule="evenodd" d="M138.556 27.8242C138.591 27.8371 138.636 27.8399 138.694 27.8317C138.74 27.8265 138.788 27.8283 138.836 27.83C138.86 27.8309 138.884 27.8317 138.907 27.8317H147.456H158.748C159.077 27.8317 159.079 27.8298 159.079 27.5035C159.08 27.0604 159.081 26.6172 159.081 26.174C159.083 25.289 159.085 24.4039 159.085 23.5189C159.085 23.2898 159.097 23.1902 159.053 23.1478C159.009 23.1051 158.908 23.1208 158.682 23.1208H148.781H148.779H144.472C143.671 23.12 143.355 23.1193 143.115 23.1188C142.851 23.1182 142.679 23.1178 142.056 23.1177L138.556 27.8242Z" fill="#7000FF"/>
<path fill-rule="evenodd" clip-rule="evenodd" d="M138.894 0.577902H155.976H156.341L156.343 0.575958C156.307 0.624626 156.275 0.667534 156.247 0.706423C156.188 0.787011 156.142 0.850339 156.093 0.9119C155.8 1.28118 155.507 1.65031 155.213 2.01949C154.425 3.0112 153.636 4.00328 152.855 4.99948C152.71 5.18202 152.564 5.23833 152.343 5.23833C149.013 5.23404 145.685 5.23291 142.355 5.23261L138.894 0.577902Z" fill="#7000FF"/>
</g>
<defs>
<clipPath id="clip0_283_2">
<rect width="306.353" height="28.549" fill="white"/>
</clipPath>
</defs>
</svg>
