<svg width="20" height="20" viewBox="0 0 20 20" fill="none" xmlns="http://www.w3.org/2000/svg">
<g clip-path="url(#clip0_45_1195)">
<path d="M9.75937 17.2928C13.8018 17.2928 17.0789 14.0158 17.0789 9.9733C17.0789 5.93084 13.8018 2.65378 9.75937 2.65378C5.71691 2.65378 2.43985 5.93084 2.43985 9.9733C2.43985 14.0158 5.71691 17.2928 9.75937 17.2928Z" stroke="white" stroke-width="1.5615" stroke-linecap="round" stroke-linejoin="round"/>
<path d="M6.70956 9.9733C6.70956 12.8294 7.72591 15.3806 9.32324 17.1014C9.37873 17.1618 9.44614 17.21 9.52121 17.2429C9.59628 17.2759 9.67738 17.2929 9.75936 17.2929C9.84135 17.2929 9.92244 17.2759 9.99751 17.2429C10.0726 17.21 10.14 17.1618 10.1955 17.1014C11.7928 15.3806 12.8092 12.8294 12.8092 9.9733C12.8092 7.11716 11.7928 4.56601 10.1955 2.84516C10.14 2.7848 10.0726 2.73662 9.99751 2.70366C9.92244 2.6707 9.84135 2.65369 9.75936 2.65369C9.67738 2.65369 9.59628 2.6707 9.52121 2.70366C9.44614 2.73662 9.37873 2.7848 9.32324 2.84516C7.72591 4.56601 6.70956 7.11716 6.70956 9.9733Z" stroke="white" stroke-width="1.5615" stroke-linecap="round" stroke-linejoin="round"/>
<path d="M2.85614 7.53345H16.6626" stroke="white" stroke-width="1.5615" stroke-linecap="round" stroke-linejoin="round"/>
<path d="M2.85614 12.4131H16.6626" stroke="white" stroke-width="1.5615" stroke-linecap="round" stroke-linejoin="round"/>
</g>
<defs>
<clipPath id="clip0_45_1195">
<rect width="19.5187" height="19.5187" fill="white" transform="translate(0 0.213928)"/>
</clipPath>
</defs>
</svg>
