<svg width="20" height="21" viewBox="0 0 20 21" fill="none" xmlns="http://www.w3.org/2000/svg">
<g clip-path="url(#clip0_45_1186)">
<path d="M9.75936 13.6167C11.4437 13.6167 12.8092 12.2512 12.8092 10.5669C12.8092 8.8825 11.4437 7.51706 9.75936 7.51706C8.07501 7.51706 6.70956 8.8825 6.70956 10.5669C6.70956 12.2512 8.07501 13.6167 9.75936 13.6167Z" stroke="white" stroke-width="1.5615" stroke-miterlimit="10"/>
<path d="M13.4191 3.24731H6.09961C4.07838 3.24731 2.43985 4.88584 2.43985 6.90707V14.2266C2.43985 16.2478 4.07838 17.8864 6.09961 17.8864H13.4191C15.4404 17.8864 17.0789 16.2478 17.0789 14.2266V6.90707C17.0789 4.88584 15.4404 3.24731 13.4191 3.24731Z" stroke="white" stroke-width="1.5615" stroke-linecap="round" stroke-linejoin="round"/>
<path d="M13.7241 7.51704C14.2294 7.51704 14.639 7.10741 14.639 6.6021C14.639 6.0968 14.2294 5.68716 13.7241 5.68716C13.2188 5.68716 12.8091 6.0968 12.8091 6.6021C12.8091 7.10741 13.2188 7.51704 13.7241 7.51704Z" fill="white"/>
</g>
<defs>
<clipPath id="clip0_45_1186">
<rect width="19.5187" height="19.5187" fill="white" transform="translate(0 0.807495)"/>
</clipPath>
</defs>
</svg>
